<svg xmlns="http://www.w3.org/2000/svg" width="249.19" height="61" viewBox="0 0 249.19 61">
  <g id="Group_1253" data-name="Group 1253" transform="translate(-10049.81 19003)">
    <text id="Schedool" transform="translate(10196 -18957)" fill="#e4ebef" font-size="44" font-family="Poppins-Regular, Poppins"><tspan x="-102.432" y="0">Schedool</tspan></text>
    <path id="list-alt" d="M24.1,0a5.192,5.192,0,0,0-5.116,5.3c0,2.778-.019,5.207-.019,5.207H13.821a1.618,1.618,0,0,0-.282.027h-1.43v4.992H36.081V10.527h-1.43a1.774,1.774,0,0,0-.282-.027H29.231s.059-2.2.059-5.19A5.342,5.342,0,0,0,24.1,0ZM5.256,5.065V53.219H42.935V5.065H31V8.553h8.487V49.724H8.708V8.552h8.485V5.063H5.256ZM24.1,5.128a1.707,1.707,0,1,1-1.712,1.706A1.706,1.706,0,0,1,24.1,5.128ZM12.109,18.9v1.709h1.712V18.9Zm5.139.033v1.709H36.081V18.937Zm-5.139,6.411v1.709h1.712V25.348Zm5.139.033v1.712H36.081V25.381Zm-5.139,6.413V33.5h1.712V31.794Zm5.139.035v1.709H36.081V31.829Zm-5.139,6.411V39.95h1.712V38.241Zm5.139.035v1.709H36.081V38.276Zm-5.139,6.408v1.709h1.712V44.685Zm5.139.035v1.709H36.081V44.72Z" transform="translate(10044.554 -19001.219)" fill="#53c8b7"/>
  </g>
</svg>
